HIERARCHY
ROOT Hips
{
	OFFSET -32.860001 56.121803 44.745396
	CHANNELS 6 Xposition Yposition Zposition Zrotation Xrotation Yrotation
	JOINT Chest
	{
		OFFSET -0.637402 0.831600 5.390099
		CHANNELS 6 Xposition Yposition Zposition Zrotation Xrotation Yrotation
		JOINT Chest2
		{
			OFFSET 0.000000 0.000000 4.429901
			CHANNELS 6 Xposition Yposition Zposition Zrotation Xrotation Yrotation
			JOINT Neck
			{
				OFFSET 0.000000 0.000000 10.301395
				CHANNELS 6 Xposition Yposition Zposition Zrotation Xrotation Yrotation
				JOINT Head
				{
					OFFSET 0.000000 0.000000 2.173897
					CHANNELS 6 Xposition Yposition Zposition Zrotation Xrotation Yrotation
					End Site
					{
						OFFSET 0.000000 0.000000 8.298004
					}
				}
			}
			JOINT LeftCollar
			{
				OFFSET 2.142401 -0.572701 5.717800
				CHANNELS 6 Xposition Yposition Zposition Zrotation Xrotation Yrotation
				JOINT LeftShoulder
				{
					OFFSET 5.674000 0.000000 0.000000
					CHANNELS 6 Xposition Yposition Zposition Zrotation Xrotation Yrotation
					JOINT LeftElbow
					{
						OFFSET 0.000000 0.000000 -12.238701
						CHANNELS 6 Xposition Yposition Zposition Zrotation Xrotation Yrotation
						JOINT LeftWrist
						{
							OFFSET 0.000000 0.000000 -10.253700
							CHANNELS 6 Xposition Yposition Zposition Zrotation Xrotation Yrotation
							End Site
							{
								OFFSET 0.000000 0.000000 -2.173901
							}
						}
					}
				}
			}
			JOINT RightCollar
			{
				OFFSET -2.882599 -1.580101 6.695801
				CHANNELS 6 Xposition Yposition Zposition Zrotation Xrotation Yrotation
				JOINT RightShoulder
				{
					OFFSET -4.235600 0.000000 0.000000
					CHANNELS 6 Xposition Yposition Zposition Zrotation Xrotation Yrotation
					JOINT RightElbow
					{
						OFFSET 0.000000 0.000000 -10.709900
						CHANNELS 6 Xposition Yposition Zposition Zrotation Xrotation Yrotation
						JOINT RightWrist
						{
							OFFSET 0.000000 0.000000 -11.716801
							CHANNELS 6 Xposition Yposition Zposition Zrotation Xrotation Yrotation
							End Site
							{
								OFFSET 0.000000 0.000000 -2.173901
							}
						}
					}
				}
			}
		}
	}
	JOINT LeftHip
	{
		OFFSET 2.279499 0.210400 -2.475502
		CHANNELS 6 Xposition Yposition Zposition Zrotation Xrotation Yrotation
		JOINT LeftKnee
		{
			OFFSET 0.000000 -0.000004 -20.742800
			CHANNELS 6 Xposition Yposition Zposition Zrotation Xrotation Yrotation
			JOINT LeftAnkle
			{
				OFFSET 0.000000 0.000000 -16.666000
				CHANNELS 6 Xposition Yposition Zposition Zrotation Xrotation Yrotation
				End Site
				{
					OFFSET 0.000000 -8.310898 0.000000
				}
			}
		}
	}
	JOINT RightHip
	{
		OFFSET -1.961899 0.232300 -2.727402
		CHANNELS 6 Xposition Yposition Zposition Zrotation Xrotation Yrotation
		JOINT RightKnee
		{
			OFFSET 0.000000 -0.000004 -20.526800
			CHANNELS 6 Xposition Yposition Zposition Zrotation Xrotation Yrotation
			JOINT RightAnkle
			{
				OFFSET 0.000000 0.000000 -16.867300
				CHANNELS 6 Xposition Yposition Zposition Zrotation Xrotation Yrotation
				End Site
				{
					OFFSET 0.000000 -7.186401 0.000000
				}
			}
		}
	}
}
MOTION
Frames: 6
Frame Time: 0.041667
-17.903397 36.555401 45.360588 957.888460 2.757341 1.019305 -0.637403 0.831597 5.390107 14.436020 0.138945 -2.964795 0.000003 0.000005 4.429895 -1.989418 -2.513761 -0.160163 0.000003 0.000003 10.301398 362.094119 17.130849 1.021462 -0.000005 -0.000003 2.173904 -360.102326 3.776929 1.695264 2.142397 -0.572701 5.717797 2.913038 -2.750431 -9.219628 5.673998 0.000004 0.000010 129.369370 111.913210 165.210064 -0.000004 0.000006 -12.238703 132.083742 -544.866047 -178.772661 0.000002 0.000006 -10.253701 -127.798454 8.726350 -38.618559 -2.882600 -1.580101 6.695799 -3.502528 -4.184577 6.539865 -4.235603 0.000001 0.000001 12.035843 -10.546415 87.736478 -0.000002 0.000003 -10.709898 2.749765 -0.068671 0.769479 -0.000002 0.000006 -11.716799 -344.643395 18.343892 23.606604 2.279501 0.210406 -2.475488 373.069768 -20.033344 8.924319 -0.000000 -0.000004 -20.742798 -48.577866 38.312788 20.179531 -0.000001 0.000000 -16.666004 40.528348 14.415586 16.610887 -1.961895 0.232296 -2.727389 -486.518363 -34.813047 -66.275354 -0.000005 0.000002 -20.526794 566.676862 152.855385 -174.225148 -0.000003 -0.000000 -16.867302 -281.620202 76.044171 -47.983643
-18.017200 36.648499 45.380997 959.931288 2.681238 1.245822 -0.637402 0.831603 5.390100 14.011974 0.542941 -3.115195 -0.000003 0.000004 4.429893 -1.780045 -2.616797 -0.172944 -0.000007 -0.000005 10.301399 361.482571 17.068890 0.921125 0.000004 -0.000006 2.173905 -360.115987 3.879171 1.724304 2.142394 -0.572704 5.717803 3.589250 -0.486608 -9.730885 5.673997 -0.000003 -0.000009 131.460992 112.269602 160.862279 -0.000001 0.000005 -12.238700 132.465467 -544.455689 -178.664362 0.000004 -0.000001 -10.253700 -126.508941 8.363810 -38.864343 -2.882605 -1.580101 6.695796 -4.797737 -1.725783 4.871775 -4.235604 -0.000009 -0.000006 14.017433 -12.694812 89.248470 0.000000 0.000003 -10.709896 12.682661 0.104730 0.679894 -0.000007 0.000003 -11.716810 -354.923431 18.862851 24.632123 2.279494 0.210410 -2.475499 372.681294 -19.908101 8.858410 -0.000001 -0.000004 -20.742800 -50.229068 38.289159 21.118648 -0.000003 0.000003 -16.666002 40.745791 14.197019 16.619266 -1.961906 0.232300 -2.727399 -486.249800 -35.015398 -67.702181 -0.000001 -0.000005 -20.526796 564.602015 153.344099 -174.490651 -0.000007 0.000004 -16.867306 -280.242716 75.989454 -48.710321
-18.118797 36.763699 45.412991 962.263278 2.532302 1.581397 -0.637405 0.831599 5.390098 13.437063 1.023099 -3.376649 0.000001 0.000001 4.429894 -1.551467 -2.726160 -0.179028 0.000004 -0.000006 10.301395 360.708710 16.976311 0.926695 0.000002 -0.000005 2.173899 -360.181229 4.054903 1.715642 2.142400 -0.572708 5.717794 3.025865 -0.812641 -10.236218 5.674000 0.000000 0.000006 130.543725 110.880437 160.635162 -0.000003 0.000004 -12.238703 132.904976 -544.160188 -178.682161 0.000011 0.000000 -10.253702 -125.690657 8.129497 -39.169687 -2.882596 -1.580097 6.695797 -5.314078 -2.058466 3.438329 -4.235602 0.000004 0.000000 15.064218 -11.984603 89.707787 -0.000004 0.000007 -10.709904 12.298160 0.218146 0.494992 -0.000001 0.000004 -11.716801 -355.071127 19.259711 25.683572 2.279495 0.210405 -2.475497 372.458494 -19.770473 8.709001 -0.000005 0.000000 -20.742798 -52.660485 38.213607 22.391503 0.000002 0.000002 -16.665998 41.235642 13.963161 16.789191 -1.961901 0.232298 -2.727391 -485.988996 -35.207955 -68.785654 0.000002 -0.000007 -20.526802 562.432747 153.723694 -174.464137 -0.000009 -0.000004 -16.867300 -278.458780 75.887138 -49.621420
-18.212099 36.901299 45.457695 964.916124 2.318102 2.032495 -0.637407 0.831604 5.390107 12.585931 1.515352 -3.783499 -0.000003 -0.000003 4.429895 -1.267093 -2.789811 -0.184565 -0.000003 -0.000001 10.301402 359.866384 16.910995 0.977066 -0.000001 0.000002 2.173903 -360.341711 4.160362 1.941735 2.142399 -0.572705 5.717805 2.468055 -1.142613 -10.861869 5.674002 0.000002 -0.000004 130.078111 109.711437 159.797685 0.000003 0.000005 -12.238703 133.210723 -543.891679 -178.641754 -0.000002 -0.000001 -10.253701 -124.963515 7.995153 -39.346541 -2.882600 -1.580094 6.695791 -5.746557 -2.385690 2.186662 -4.235608 0.000001 0.000001 15.736319 -11.398221 89.744772 -0.000006 0.000005 -10.709901 12.022084 0.307761 0.569381 0.000003 0.000004 -11.716814 -355.300813 19.670306 26.492615 2.279499 0.210410 -2.475496 372.384099 -19.631717 8.476506 -0.000004 -0.000003 -20.742792 -56.064689 37.971801 24.263921 -0.000007 -0.000006 -16.665998 41.969480 13.583680 17.068356 -1.961889 0.232296 -2.727387 -485.674316 -35.463998 -69.417788 -0.000002 -0.000004 -20.526800 560.045678 154.090994 -174.245789 0.000001 -0.000008 -16.867304 -276.103239 75.832838 -50.730509
-18.299908 37.058201 45.513390 967.744587 2.135219 2.604500 -0.637399 0.831603 5.390101 11.712364 1.899709 -4.290089 -0.000006 0.000005 4.429906 -0.967306 -2.820362 -0.204532 -0.000002 0.000003 10.301398 358.903847 16.920346 1.041636 -0.000001 -0.000000 2.173906 -360.182130 4.223443 1.725949 2.142393 -0.572699 5.717802 1.811644 -1.440441 -11.577862 5.673994 0.000000 0.000004 128.797697 108.610840 159.612232 -0.000005 -0.000003 -12.238700 134.003544 -543.751906 -178.570692 0.000009 -0.000002 -10.253701 -124.537271 8.165574 -39.710768 -2.882607 -1.580097 6.695796 -6.239846 -2.682486 1.045403 -4.235601 0.000010 0.000002 16.172505 -10.893362 89.543247 0.000001 0.000008 -10.709905 11.816935 0.449896 0.532952 -0.000001 0.000011 -11.716797 -355.649753 20.030945 27.216335 2.279499 0.210404 -2.475499 372.730800 -19.584031 8.226574 -0.000000 0.000002 -20.742794 -60.306445 37.562127 26.494927 -0.000002 -0.000000 -16.666000 43.185664 13.162233 17.430025 -1.961897 0.232302 -2.727405 -485.193143 -35.734662 -69.675361 0.000005 -0.000002 -20.526793 561.937585 153.795971 -175.351583 0.000003 0.000002 -16.867296 -278.100059 75.421237 -51.108649
-18.387295 37.235603 45.577091 970.585509 1.706542 3.287428 -0.637407 0.831598 5.390101 10.993038 2.489701 -4.972341 0.000002 0.000004 4.429904 -0.655715 -2.806497 -0.210105 -0.000005 -0.000005 10.301395 357.958221 16.922895 1.065758 0.000002 0.000000 2.173908 -360.074760 4.244440 1.559558 2.142397 -0.572700 5.717803 1.266853 -1.871795 -12.422141 5.673995 -0.000001 0.000003 128.179210 107.655673 158.517025 -0.000007 0.000006 -12.238696 134.638560 -543.634318 -178.598054 0.000004 -0.000003 -10.253702 -124.535659 8.499373 -40.159333 -2.882604 -1.580100 6.695795 -6.727810 -2.998250 -0.000975 -4.235606 0.000003 -0.000005 16.399749 -10.260968 89.126688 0.000004 0.000003 -10.709898 11.461611 0.679421 0.514011 -0.000001 0.000005 -11.716799 -356.046505 20.339602 27.735155 2.279495 0.210404 -2.475498 373.161730 -19.375303 7.764793 -0.000007 -0.000010 -20.742800 -64.599123 36.952133 28.888647 0.000000 -0.000001 -16.666002 44.702864 12.654720 17.713396 -1.961899 0.232306 -2.727400 -484.261341 -36.126756 -69.281334 -0.000002 0.000005 -20.526800 561.672246 153.790001 -175.505290 0.000001 -0.000002 -16.867294 -277.073181 75.264880 -52.190462
